<?xml version="1.0" encoding="utf-8"?>
<!-- Generator: Adobe Illustrator 24.0.3, SVG Export Plug-In . SVG Version: 6.00 Build 0)  -->
<svg version="1.1" id="レイヤー_1" focusable="false"
	 xmlns="http://www.w3.org/2000/svg" xmlns:xlink="http://www.w3.org/1999/xlink" x="0px" y="0px" viewBox="0 0 288 288"
	 style="enable-background:new 0 0 288 288;" xml:space="preserve">
<style type="text/css">
	.st0{fill:#E0E5EC;}
</style>
<path class="st0" d="M216,158c0,3.3-2.7,6-6,6h-46v46c0,3.3-2.7,6-6,6h-28c-3.3,0-6-2.7-6-6v-46H78c-3.3,0-6-2.7-6-6v-28
	c0-3.3,2.7-6,6-6h46V78c0-3.3,2.7-6,6-6h28c3.3,0,6,2.7,6,6v46h46c3.3,0,6,2.7,6,6V158z"/>
</svg>
